<svg width="30" height="30" viewBox="0 0 30 30" fill="none" xmlns="http://www.w3.org/2000/svg">
<path d="M5.24859 0H25.7514V30H5.24864L5.24859 0Z" fill="white"/>
<path d="M-5 0H5.24859L5.24864 30H-5V0ZM25.7514 0H36V30H25.7571L25.7514 0ZM8.32148 14.4962L7.51788 14.7774L11.2246 18.1465C11.5076 19.0078 11.1284 19.2598 10.885 19.7168L14.903 19.1894L14.8068 23.3789L15.6443 23.3554L15.4576 19.1953L19.4868 19.6934C19.2378 19.1485 19.0171 18.8613 19.2435 17.9942L22.9446 14.8007L22.2994 14.5547C21.7674 14.1328 22.5257 12.5215 22.6389 11.502C22.6389 11.502 20.4828 12.2695 20.3413 11.8653L19.7868 10.7696L17.8231 13.0078C17.608 13.0606 17.5175 12.9726 17.4666 12.7851L18.372 8.1094L16.9346 8.94725C16.8157 9.0059 16.6969 8.959 16.6177 8.8125L15.2312 5.94135L13.8051 8.92385C13.6976 9.0293 13.5901 9.041 13.4996 8.97075L12.13 8.17385L12.9563 12.8086C12.8883 12.9961 12.7299 13.043 12.5488 12.9434L10.6643 10.7344C10.421 11.1446 10.2569 11.8066 9.9287 11.959C9.60612 12.0996 8.51387 11.6777 7.78386 11.5137C8.03285 12.4453 8.81381 13.9922 8.32148 14.502V14.4962Z" fill="#D52B1E"/>
</svg>
