<svg width="492" height="238" viewBox="0 0 492 238" fill="none" xmlns="http://www.w3.org/2000/svg">
<g filter="url(#filter0_d_9_53)">
<path d="M8.48 199.12C8.61333 199.04 8.81333 199 9.08 199H13.76C13.8933 199 14 199.053 14.08 199.16C14.16 199.24 14.1867 199.347 14.16 199.48L10.84 226.52C10.8133 226.653 10.7467 226.773 10.64 226.88C10.56 226.96 10.4533 227 10.32 227H5.8C5.50667 227 5.36 226.84 5.36 226.52L8.08 204.6C8.08 204.547 8.05333 204.493 8 204.44C7.94667 204.387 7.89333 204.373 7.84 204.4L3.88 205.48L3.72 205.52C3.48 205.52 3.38667 205.373 3.44 205.08L3.72 201.64C3.77333 201.4 3.92 201.213 4.16 201.08L8.48 199.12ZM23.9109 227.44C21.3243 227.44 19.3109 226.76 17.8709 225.4C16.4309 224.04 15.7109 222.16 15.7109 219.76C15.7109 219.12 15.7376 218.627 15.7909 218.28L17.0709 207.72C17.4176 204.947 18.5109 202.747 20.3509 201.12C22.2176 199.493 24.5776 198.68 27.4309 198.68C30.0176 198.68 32.0309 199.36 33.4709 200.72C34.9376 202.053 35.6709 203.893 35.6709 206.24C35.6709 206.88 35.6443 207.373 35.5909 207.72L34.3109 218.28C33.9643 221.107 32.8576 223.347 30.9909 225C29.1243 226.627 26.7643 227.44 23.9109 227.44ZM24.5109 222.6C25.6576 222.6 26.6176 222.24 27.3909 221.52C28.1643 220.8 28.6309 219.813 28.7909 218.56L30.1509 207.56C30.1776 207.4 30.1909 207.187 30.1909 206.92C30.1909 205.853 29.8976 205.027 29.3109 204.44C28.7243 203.827 27.8976 203.52 26.8309 203.52C25.6843 203.52 24.7243 203.893 23.9509 204.64C23.1776 205.36 22.7243 206.333 22.5909 207.56L21.2309 218.56C21.2043 218.72 21.1909 218.96 21.1909 219.28C21.1909 220.32 21.4843 221.133 22.0709 221.72C22.6576 222.307 23.4709 222.6 24.5109 222.6ZM46.0203 227.44C43.4336 227.44 41.4203 226.76 39.9803 225.4C38.5403 224.04 37.8203 222.16 37.8203 219.76C37.8203 219.12 37.847 218.627 37.9003 218.28L39.1803 207.72C39.527 204.947 40.6203 202.747 42.4603 201.12C44.327 199.493 46.687 198.68 49.5403 198.68C52.127 198.68 54.1403 199.36 55.5803 200.72C57.047 202.053 57.7803 203.893 57.7803 206.24C57.7803 206.88 57.7536 207.373 57.7003 207.72L56.4203 218.28C56.0736 221.107 54.967 223.347 53.1003 225C51.2336 226.627 48.8736 227.44 46.0203 227.44ZM46.6203 222.6C47.767 222.6 48.727 222.24 49.5003 221.52C50.2736 220.8 50.7403 219.813 50.9003 218.56L52.2603 207.56C52.287 207.4 52.3003 207.187 52.3003 206.92C52.3003 205.853 52.007 205.027 51.4203 204.44C50.8336 203.827 50.007 203.52 48.9403 203.52C47.7936 203.52 46.8336 203.893 46.0603 204.64C45.287 205.36 44.8336 206.333 44.7003 207.56L43.3403 218.56C43.3136 218.72 43.3003 218.96 43.3003 219.28C43.3003 220.32 43.5936 221.133 44.1803 221.72C44.767 222.307 45.5803 222.6 46.6203 222.6Z" fill="#FFD700"/>
<path d="M89.0231 203.36C88.9965 203.493 88.9298 203.613 88.8231 203.72C88.7431 203.8 88.6365 203.84 88.5031 203.84H75.7831C75.7298 203.84 75.6765 203.867 75.6231 203.92C75.5965 203.947 75.5831 203.987 75.5831 204.04L74.8231 210.24C74.8231 210.373 74.8765 210.44 74.9831 210.44H83.3431C83.4765 210.44 83.5831 210.493 83.6631 210.6C83.7431 210.68 83.7698 210.787 83.7431 210.92L83.2631 214.8C83.2365 214.933 83.1698 215.053 83.0631 215.16C82.9831 215.24 82.8765 215.28 82.7431 215.28H74.3831C74.2498 215.28 74.1831 215.347 74.1831 215.48L72.8231 226.52C72.7965 226.653 72.7298 226.773 72.6231 226.88C72.5431 226.96 72.4365 227 72.3031 227H67.7431C67.6098 227 67.5031 226.96 67.4231 226.88C67.3431 226.773 67.3165 226.653 67.3431 226.52L70.6631 199.48C70.6898 199.347 70.7431 199.24 70.8231 199.16C70.9298 199.053 71.0498 199 71.1831 199H89.1031C89.2365 199 89.3431 199.053 89.4231 199.16C89.5031 199.24 89.5298 199.347 89.5031 199.48L89.0231 203.36ZM103.902 227C103.662 227 103.502 226.88 103.422 226.64L99.9419 215.56C99.8885 215.453 99.8085 215.4 99.7019 215.4H96.1019C95.9685 215.4 95.9019 215.467 95.9019 215.6L94.5419 226.52C94.5152 226.653 94.4485 226.773 94.3419 226.88C94.2619 226.96 94.1552 227 94.0219 227H89.4619C89.3285 227 89.2219 226.96 89.1419 226.88C89.0619 226.773 89.0352 226.653 89.0619 226.52L92.3819 199.48C92.4085 199.347 92.4619 199.24 92.5419 199.16C92.6485 199.053 92.7685 199 92.9019 199H104.022C106.289 199 108.075 199.64 109.382 200.92C110.689 202.2 111.342 203.92 111.342 206.08C111.342 206.347 111.315 206.8 111.262 207.44C111.049 209.253 110.422 210.813 109.382 212.12C108.342 213.4 107.009 214.307 105.382 214.84C105.222 214.893 105.169 214.987 105.222 215.12L109.102 226.44C109.129 226.493 109.142 226.56 109.142 226.64C109.142 226.88 108.995 227 108.702 227H103.902ZM97.5019 203.84C97.4485 203.84 97.3952 203.867 97.3419 203.92C97.3152 203.947 97.3019 203.987 97.3019 204.04L96.4619 210.88C96.4619 211.013 96.5152 211.08 96.6219 211.08H101.702C102.902 211.08 103.902 210.707 104.702 209.96C105.502 209.187 105.902 208.2 105.902 207C105.902 206.04 105.595 205.28 104.982 204.72C104.395 204.133 103.609 203.84 102.622 203.84H97.5019ZM134.571 203.36C134.544 203.493 134.478 203.613 134.371 203.72C134.291 203.8 134.184 203.84 134.051 203.84H121.291C121.238 203.84 121.184 203.867 121.131 203.92C121.104 203.947 121.091 203.987 121.091 204.04L120.331 210.24C120.331 210.373 120.384 210.44 120.491 210.44H128.851C128.984 210.44 129.091 210.493 129.171 210.6C129.251 210.68 129.278 210.787 129.251 210.92L128.771 214.8C128.744 214.933 128.678 215.053 128.571 215.16C128.491 215.24 128.384 215.28 128.251 215.28H119.891C119.758 215.28 119.691 215.347 119.691 215.48L118.891 221.96C118.891 222.093 118.944 222.16 119.051 222.16H131.771C132.064 222.16 132.211 222.32 132.211 222.64L131.731 226.52C131.704 226.653 131.638 226.773 131.531 226.88C131.451 226.96 131.344 227 131.211 227H113.251C113.118 227 113.011 226.96 112.931 226.88C112.851 226.773 112.824 226.653 112.851 226.52L116.171 199.48C116.198 199.347 116.251 199.24 116.331 199.16C116.438 199.053 116.558 199 116.691 199H134.611C134.744 199 134.851 199.053 134.931 199.16C135.038 199.24 135.078 199.347 135.051 199.48L134.571 203.36ZM157.266 203.36C157.24 203.493 157.173 203.613 157.066 203.72C156.986 203.8 156.88 203.84 156.746 203.84H143.986C143.933 203.84 143.88 203.867 143.826 203.92C143.8 203.947 143.786 203.987 143.786 204.04L143.026 210.24C143.026 210.373 143.08 210.44 143.186 210.44H151.546C151.68 210.44 151.786 210.493 151.866 210.6C151.946 210.68 151.973 210.787 151.946 210.92L151.466 214.8C151.44 214.933 151.373 215.053 151.266 215.16C151.186 215.24 151.08 215.28 150.946 215.28H142.586C142.453 215.28 142.386 215.347 142.386 215.48L141.586 221.96C141.586 222.093 141.64 222.16 141.746 222.16H154.466C154.76 222.16 154.906 222.32 154.906 222.64L154.426 226.52C154.4 226.653 154.333 226.773 154.226 226.88C154.146 226.96 154.04 227 153.906 227H135.946C135.813 227 135.706 226.96 135.626 226.88C135.546 226.773 135.52 226.653 135.546 226.52L138.866 199.48C138.893 199.347 138.946 199.24 139.026 199.16C139.133 199.053 139.253 199 139.386 199H157.306C157.44 199 157.546 199.053 157.626 199.16C157.733 199.24 157.773 199.347 157.746 199.48L157.266 203.36ZM175.255 227.32C172.348 227.32 170.055 226.667 168.375 225.36C166.722 224.053 165.895 222.28 165.895 220.04C165.895 219.8 165.922 219.44 165.975 218.96L166.095 218.08C166.122 217.947 166.175 217.84 166.255 217.76C166.362 217.653 166.482 217.6 166.615 217.6H171.055C171.188 217.6 171.295 217.653 171.375 217.76C171.455 217.84 171.482 217.947 171.455 218.08L171.375 218.68C171.242 219.747 171.602 220.653 172.455 221.4C173.335 222.12 174.588 222.48 176.215 222.48C177.708 222.48 178.828 222.147 179.575 221.48C180.348 220.813 180.735 220 180.735 219.04C180.735 218.453 180.535 217.96 180.135 217.56C179.762 217.16 179.242 216.813 178.575 216.52C177.935 216.2 176.908 215.76 175.495 215.2C173.948 214.613 172.642 214.04 171.575 213.48C170.508 212.893 169.615 212.12 168.895 211.16C168.175 210.2 167.815 209.013 167.815 207.6C167.815 207.413 167.842 207.08 167.895 206.6C168.188 204.173 169.295 202.253 171.215 200.84C173.135 199.4 175.508 198.68 178.335 198.68C180.148 198.68 181.748 199 183.135 199.64C184.548 200.253 185.628 201.133 186.375 202.28C187.148 203.4 187.535 204.72 187.535 206.24C187.535 206.453 187.508 206.8 187.455 207.28L187.375 207.88C187.348 208.013 187.282 208.133 187.175 208.24C187.095 208.32 186.988 208.36 186.855 208.36H182.375C182.242 208.36 182.135 208.32 182.055 208.24C181.975 208.133 181.948 208.013 181.975 207.88L182.015 207.56C182.148 206.44 181.815 205.493 181.015 204.72C180.242 203.92 179.068 203.52 177.495 203.52C176.188 203.52 175.148 203.827 174.375 204.44C173.602 205.027 173.215 205.84 173.215 206.88C173.215 207.467 173.402 207.96 173.775 208.36C174.148 208.76 174.695 209.133 175.415 209.48C176.162 209.827 177.282 210.293 178.775 210.88C180.428 211.547 181.708 212.12 182.615 212.6C183.548 213.053 184.388 213.747 185.135 214.68C185.882 215.613 186.255 216.787 186.255 218.2C186.255 218.387 186.228 218.72 186.175 219.2C185.855 221.707 184.708 223.693 182.735 225.16C180.788 226.6 178.295 227.32 175.255 227.32ZM203.701 198.96C206.021 198.96 207.861 199.627 209.221 200.96C210.608 202.267 211.301 204.04 211.301 206.28C211.301 206.547 211.274 207 211.221 207.64C211.008 209.32 210.448 210.8 209.541 212.08C208.661 213.36 207.514 214.36 206.101 215.08C204.688 215.773 203.114 216.12 201.381 216.12H195.861C195.754 216.12 195.674 216.187 195.621 216.32L194.381 226.52C194.354 226.653 194.288 226.773 194.181 226.88C194.101 226.96 193.994 227 193.861 227H189.341C189.048 227 188.901 226.84 188.901 226.52L192.261 199.44C192.261 199.307 192.314 199.2 192.421 199.12C192.528 199.013 192.648 198.96 192.781 198.96H203.701ZM201.341 211.6C202.621 211.6 203.688 211.187 204.541 210.36C205.394 209.507 205.821 208.44 205.821 207.16C205.821 206.147 205.501 205.347 204.861 204.76C204.221 204.147 203.368 203.84 202.301 203.84H197.381C197.274 203.84 197.194 203.907 197.141 204.04L196.261 211.4C196.208 211.533 196.261 211.6 196.421 211.6H201.341ZM212.665 227C212.532 227 212.425 226.96 212.345 226.88C212.265 226.773 212.238 226.653 212.265 226.52L215.585 199.48C215.612 199.347 215.665 199.24 215.745 199.16C215.852 199.053 215.972 199 216.105 199H220.665C220.798 199 220.905 199.053 220.985 199.16C221.065 199.24 221.092 199.347 221.065 199.48L217.745 226.52C217.718 226.653 217.652 226.773 217.545 226.88C217.465 226.96 217.358 227 217.225 227H212.665ZM241.38 199.48C241.407 199.347 241.46 199.24 241.54 199.16C241.647 199.053 241.767 199 241.9 199H246.46C246.594 199 246.7 199.053 246.78 199.16C246.86 199.24 246.887 199.347 246.86 199.48L243.54 226.52C243.514 226.653 243.447 226.773 243.34 226.88C243.26 226.96 243.154 227 243.02 227H238.62C238.38 227 238.22 226.893 238.14 226.68L230.18 209.56C230.154 209.48 230.114 209.453 230.06 209.48C230.007 209.48 229.967 209.533 229.94 209.64L227.94 226.52C227.914 226.653 227.847 226.773 227.74 226.88C227.66 226.96 227.554 227 227.42 227H222.86C222.727 227 222.62 226.96 222.54 226.88C222.46 226.773 222.434 226.653 222.46 226.52L225.78 199.48C225.807 199.347 225.86 199.24 225.94 199.16C226.047 199.053 226.167 199 226.3 199H230.7C230.94 199 231.114 199.107 231.22 199.32L239.14 216.36C239.167 216.44 239.207 216.48 239.26 216.48C239.314 216.453 239.354 216.387 239.38 216.28L241.38 199.48ZM257.56 227.32C254.653 227.32 252.36 226.667 250.68 225.36C249.026 224.053 248.2 222.28 248.2 220.04C248.2 219.8 248.226 219.44 248.28 218.96L248.4 218.08C248.426 217.947 248.48 217.84 248.56 217.76C248.666 217.653 248.786 217.6 248.92 217.6H253.36C253.493 217.6 253.6 217.653 253.68 217.76C253.76 217.84 253.786 217.947 253.76 218.08L253.68 218.68C253.546 219.747 253.906 220.653 254.76 221.4C255.64 222.12 256.893 222.48 258.52 222.48C260.013 222.48 261.133 222.147 261.88 221.48C262.653 220.813 263.04 220 263.04 219.04C263.04 218.453 262.84 217.96 262.44 217.56C262.066 217.16 261.546 216.813 260.88 216.52C260.24 216.2 259.213 215.76 257.8 215.2C256.253 214.613 254.946 214.04 253.88 213.48C252.813 212.893 251.92 212.12 251.2 211.16C250.48 210.2 250.12 209.013 250.12 207.6C250.12 207.413 250.146 207.08 250.2 206.6C250.493 204.173 251.6 202.253 253.52 200.84C255.44 199.4 257.813 198.68 260.64 198.68C262.453 198.68 264.053 199 265.44 199.64C266.853 200.253 267.933 201.133 268.68 202.28C269.453 203.4 269.84 204.72 269.84 206.24C269.84 206.453 269.813 206.8 269.76 207.28L269.68 207.88C269.653 208.013 269.586 208.133 269.48 208.24C269.4 208.32 269.293 208.36 269.16 208.36H264.68C264.546 208.36 264.44 208.32 264.36 208.24C264.28 208.133 264.253 208.013 264.28 207.88L264.32 207.56C264.453 206.44 264.12 205.493 263.32 204.72C262.546 203.92 261.373 203.52 259.8 203.52C258.493 203.52 257.453 203.827 256.68 204.44C255.906 205.027 255.52 205.84 255.52 206.88C255.52 207.467 255.706 207.96 256.08 208.36C256.453 208.76 257 209.133 257.72 209.48C258.466 209.827 259.586 210.293 261.08 210.88C262.733 211.547 264.013 212.12 264.92 212.6C265.853 213.053 266.693 213.747 267.44 214.68C268.186 215.613 268.56 216.787 268.56 218.2C268.56 218.387 268.533 218.72 268.48 219.2C268.16 221.707 267.013 223.693 265.04 225.16C263.093 226.6 260.6 227.32 257.56 227.32Z" fill="white"/>
</g>
<g filter="url(#filter1_d_9_53)">
<path d="M13.18 156.97C14.92 156.97 16.3 157.47 17.32 158.47C18.36 159.45 18.88 160.78 18.88 162.46C18.88 162.66 18.86 163 18.82 163.48C18.66 164.74 18.24 165.85 17.56 166.81C16.9 167.77 16.04 168.52 14.98 169.06C13.92 169.58 12.74 169.84 11.44 169.84H7.3C7.22 169.84 7.16 169.89 7.12 169.99L6.19 177.64C6.17 177.74 6.12 177.83 6.04 177.91C5.98 177.97 5.9 178 5.8 178H2.41C2.19 178 2.08 177.88 2.08 177.64L4.6 157.33C4.6 157.23 4.64 157.15 4.72 157.09C4.8 157.01 4.89 156.97 4.99 156.97H13.18ZM11.41 166.45C12.37 166.45 13.17 166.14 13.81 165.52C14.45 164.88 14.77 164.08 14.77 163.12C14.77 162.36 14.53 161.76 14.05 161.32C13.57 160.86 12.93 160.63 12.13 160.63H8.44C8.36 160.63 8.3 160.68 8.26 160.78L7.6 166.3C7.56 166.4 7.6 166.45 7.72 166.45H11.41ZM19.903 178C19.803 178 19.723 177.97 19.663 177.91C19.603 177.83 19.583 177.74 19.603 177.64L22.093 157.36C22.113 157.26 22.153 157.18 22.213 157.12C22.293 157.04 22.383 157 22.483 157H25.903C26.003 157 26.083 157.04 26.143 157.12C26.203 157.18 26.223 157.26 26.203 157.36L24.133 174.22C24.133 174.32 24.173 174.37 24.253 174.37H33.763C33.983 174.37 34.093 174.49 34.093 174.73L33.733 177.64C33.713 177.74 33.663 177.83 33.583 177.91C33.523 177.97 33.443 178 33.343 178H19.903ZM43.5637 178.24C41.5037 178.24 39.8637 177.68 38.6437 176.56C37.4437 175.44 36.8437 173.94 36.8437 172.06C36.8437 171.86 36.8637 171.52 36.9037 171.04L38.5837 157.36C38.6037 157.26 38.6537 157.18 38.7337 157.12C38.8137 157.04 38.9037 157 39.0037 157H42.3937C42.4937 157 42.5737 157.04 42.6337 157.12C42.6937 157.18 42.7137 157.26 42.6937 157.36L41.0137 171.07C40.9937 171.21 40.9837 171.4 40.9837 171.64C40.9837 172.54 41.2537 173.26 41.7937 173.8C42.3337 174.34 43.0737 174.61 44.0137 174.61C45.0337 174.61 45.8937 174.29 46.5937 173.65C47.3137 172.99 47.7437 172.13 47.8837 171.07L49.5637 157.36C49.5837 157.26 49.6237 157.18 49.6837 157.12C49.7637 157.04 49.8537 157 49.9537 157H53.3737C53.4737 157 53.5537 157.04 53.6137 157.12C53.6737 157.18 53.6937 157.26 53.6737 157.36L51.9937 171.04C51.8137 172.46 51.3437 173.72 50.5837 174.82C49.8237 175.9 48.8337 176.74 47.6137 177.34C46.4137 177.94 45.0637 178.24 43.5637 178.24ZM61.5135 178.24C59.3335 178.24 57.6135 177.75 56.3535 176.77C55.1135 175.79 54.4935 174.46 54.4935 172.78C54.4935 172.6 54.5135 172.33 54.5535 171.97L54.6435 171.31C54.6635 171.21 54.7035 171.13 54.7635 171.07C54.8435 170.99 54.9335 170.95 55.0335 170.95H58.3635C58.4635 170.95 58.5435 170.99 58.6035 171.07C58.6635 171.13 58.6835 171.21 58.6635 171.31L58.6035 171.76C58.5035 172.56 58.7735 173.24 59.4135 173.8C60.0735 174.34 61.0135 174.61 62.2335 174.61C63.3535 174.61 64.1935 174.36 64.7535 173.86C65.3335 173.36 65.6235 172.75 65.6235 172.03C65.6235 171.59 65.4735 171.22 65.1735 170.92C64.8935 170.62 64.5035 170.36 64.0035 170.14C63.5235 169.9 62.7535 169.57 61.6935 169.15C60.5335 168.71 59.5535 168.28 58.7535 167.86C57.9535 167.42 57.2835 166.84 56.7435 166.12C56.2035 165.4 55.9335 164.51 55.9335 163.45C55.9335 163.31 55.9535 163.06 55.9935 162.7C56.2135 160.88 57.0435 159.44 58.4835 158.38C59.9235 157.3 61.7035 156.76 63.8235 156.76C65.1835 156.76 66.3835 157 67.4235 157.48C68.4835 157.94 69.2935 158.6 69.8535 159.46C70.4335 160.3 70.7235 161.29 70.7235 162.43C70.7235 162.59 70.7035 162.85 70.6635 163.21L70.6035 163.66C70.5835 163.76 70.5335 163.85 70.4535 163.93C70.3935 163.99 70.3135 164.02 70.2135 164.02H66.8535C66.7535 164.02 66.6735 163.99 66.6135 163.93C66.5535 163.85 66.5335 163.76 66.5535 163.66L66.5835 163.42C66.6835 162.58 66.4335 161.87 65.8335 161.29C65.2535 160.69 64.3735 160.39 63.1935 160.39C62.2135 160.39 61.4335 160.62 60.8535 161.08C60.2735 161.52 59.9835 162.13 59.9835 162.91C59.9835 163.35 60.1235 163.72 60.4035 164.02C60.6835 164.32 61.0935 164.6 61.6335 164.86C62.1935 165.12 63.0335 165.47 64.1535 165.91C65.3935 166.41 66.3535 166.84 67.0335 167.2C67.7335 167.54 68.3635 168.06 68.9235 168.76C69.4835 169.46 69.7635 170.34 69.7635 171.4C69.7635 171.54 69.7435 171.79 69.7035 172.15C69.4635 174.03 68.6035 175.52 67.1235 176.62C65.6635 177.7 63.7935 178.24 61.5135 178.24Z" fill="white"/>
</g>
<g filter="url(#filter2_d_9_53)">
<path d="M8.48 107.12C8.61333 107.04 8.81333 107 9.08 107H13.76C13.8933 107 14 107.053 14.08 107.16C14.16 107.24 14.1867 107.347 14.16 107.48L10.84 134.52C10.8133 134.653 10.7467 134.773 10.64 134.88C10.56 134.96 10.4533 135 10.32 135H5.8C5.50667 135 5.36 134.84 5.36 134.52L8.08 112.6C8.08 112.547 8.05333 112.493 8 112.44C7.94667 112.387 7.89333 112.373 7.84 112.4L3.88 113.48L3.72 113.52C3.48 113.52 3.38667 113.373 3.44 113.08L3.72 109.64C3.77333 109.4 3.92 109.213 4.16 109.08L8.48 107.12ZM33.5509 122.24C33.6843 122.907 33.7509 123.68 33.7509 124.56C33.7509 125.227 33.7243 125.72 33.6709 126.04C33.5109 127.373 33.1509 128.6 32.5909 129.72C31.8176 131.4 30.6043 132.747 28.9509 133.76C27.3243 134.773 25.5109 135.28 23.5109 135.28C21.5376 135.28 19.8709 134.8 18.5109 133.84C17.1509 132.853 16.2576 131.52 15.8309 129.84C15.6709 129.253 15.5643 128.52 15.5109 127.64C15.5109 127.293 15.6843 127.12 16.0309 127.12H20.7509C20.9909 127.12 21.1376 127.267 21.1909 127.56C21.2443 127.827 21.2976 128.053 21.3509 128.24C21.5109 128.933 21.8309 129.467 22.3109 129.84C22.7909 130.213 23.3776 130.4 24.0709 130.4C24.7909 130.4 25.4443 130.2 26.0309 129.8C26.6176 129.4 27.0843 128.84 27.4309 128.12C27.7509 127.613 27.9643 126.92 28.0709 126.04C28.0976 125.853 28.1109 125.573 28.1109 125.2C28.1109 124.8 28.0709 124.387 27.9909 123.96C27.8843 123.267 27.5909 122.733 27.1109 122.36C26.6309 121.987 26.0176 121.8 25.2709 121.8C24.5243 121.8 23.8176 121.973 23.1509 122.32C22.4843 122.667 22.0309 123.12 21.7909 123.68C21.6576 123.947 21.4709 124.08 21.2309 124.08H16.4309C16.2976 124.08 16.1909 124.04 16.1109 123.96C16.0309 123.853 16.0043 123.733 16.0309 123.6L18.0309 107.48C18.0576 107.347 18.1109 107.24 18.1909 107.16C18.2976 107.053 18.4176 107 18.5509 107H34.5509C34.6843 107 34.7909 107.053 34.8709 107.16C34.9776 107.24 35.0176 107.347 34.9909 107.48L34.5109 111.36C34.4843 111.493 34.4176 111.613 34.3109 111.72C34.2309 111.8 34.1243 111.84 33.9909 111.84H23.1509C23.0176 111.84 22.9509 111.907 22.9509 112.04L22.1509 117.96C22.1509 118.147 22.2309 118.187 22.3909 118.08C23.6176 117.307 25.0043 116.92 26.5509 116.92C28.3376 116.92 29.8576 117.4 31.1109 118.36C32.3643 119.293 33.1776 120.587 33.5509 122.24ZM44.8094 135.44C42.2227 135.44 40.2094 134.76 38.7694 133.4C37.3294 132.04 36.6094 130.16 36.6094 127.76C36.6094 127.12 36.636 126.627 36.6894 126.28L37.9694 115.72C38.316 112.947 39.4094 110.747 41.2494 109.12C43.116 107.493 45.476 106.68 48.3294 106.68C50.916 106.68 52.9294 107.36 54.3694 108.72C55.836 110.053 56.5694 111.893 56.5694 114.24C56.5694 114.88 56.5427 115.373 56.4894 115.72L55.2094 126.28C54.8627 129.107 53.756 131.347 51.8894 133C50.0227 134.627 47.6627 135.44 44.8094 135.44ZM45.4094 130.6C46.556 130.6 47.516 130.24 48.2894 129.52C49.0627 128.8 49.5294 127.813 49.6894 126.56L51.0494 115.56C51.076 115.4 51.0894 115.187 51.0894 114.92C51.0894 113.853 50.796 113.027 50.2094 112.44C49.6227 111.827 48.796 111.52 47.7294 111.52C46.5827 111.52 45.6227 111.893 44.8494 112.64C44.076 113.36 43.6227 114.333 43.4894 115.56L42.1294 126.56C42.1027 126.72 42.0894 126.96 42.0894 127.28C42.0894 128.32 42.3827 129.133 42.9694 129.72C43.556 130.307 44.3694 130.6 45.4094 130.6ZM66.4388 119.28C64.8388 119.28 63.5188 118.76 62.4788 117.72C61.4654 116.653 60.9588 115.32 60.9588 113.72C60.9588 112.493 61.2788 111.333 61.9188 110.24C62.5854 109.147 63.4654 108.28 64.5588 107.64C65.6521 106.973 66.7988 106.64 67.9988 106.64C69.5454 106.64 70.8254 107.173 71.8388 108.24C72.8788 109.28 73.3988 110.587 73.3988 112.16C73.3988 113.44 73.0788 114.627 72.4388 115.72C71.7988 116.787 70.9454 117.653 69.8788 118.32C68.8121 118.96 67.6654 119.28 66.4388 119.28ZM62.9988 135C62.7588 135 62.6388 134.92 62.6388 134.76C62.6388 134.653 62.6788 134.547 62.7588 134.44L80.7188 107.32C80.8788 107.107 81.0921 107 81.3588 107H84.1988C84.4388 107 84.5588 107.08 84.5588 107.24C84.5588 107.32 84.5188 107.427 84.4388 107.56L66.5188 134.68C66.3854 134.893 66.1854 135 65.9188 135H62.9988ZM66.8388 116C67.7188 116 68.4788 115.653 69.1188 114.96C69.7854 114.267 70.1188 113.453 70.1188 112.52C70.1188 111.773 69.8788 111.16 69.3988 110.68C68.9188 110.2 68.3188 109.96 67.5988 109.96C66.7188 109.96 65.9321 110.293 65.2388 110.96C64.5721 111.627 64.2388 112.427 64.2388 113.36C64.2388 114.107 64.4788 114.733 64.9588 115.24C65.4654 115.747 66.0921 116 66.8388 116ZM79.5988 135.36C78.0254 135.36 76.7188 134.827 75.6788 133.76C74.6654 132.693 74.1588 131.36 74.1588 129.76C74.1588 128.533 74.4788 127.373 75.1188 126.28C75.7854 125.187 76.6521 124.32 77.7188 123.68C78.8121 123.04 79.9588 122.72 81.1588 122.72C82.7054 122.72 83.9988 123.24 85.0388 124.28C86.0788 125.32 86.5988 126.627 86.5988 128.2C86.5988 129.48 86.2788 130.667 85.6388 131.76C84.9988 132.853 84.1321 133.733 83.0388 134.4C81.9721 135.04 80.8254 135.36 79.5988 135.36ZM79.9988 132.04C80.9054 132.04 81.6788 131.693 82.3188 131C82.9854 130.307 83.3188 129.493 83.3188 128.56C83.3188 127.813 83.0654 127.2 82.5588 126.72C82.0788 126.24 81.4788 126 80.7588 126C79.8788 126 79.1054 126.333 78.4388 127C77.7721 127.667 77.4388 128.467 77.4388 129.4C77.4388 130.173 77.6788 130.813 78.1588 131.32C78.6388 131.8 79.2521 132.04 79.9988 132.04Z" fill="#FFD700"/>
<path d="M115.964 120.4C115.804 120.48 115.791 120.56 115.924 120.64C117.924 121.733 118.924 123.493 118.924 125.92C118.924 126.16 118.898 126.573 118.844 127.16C118.524 129.747 117.418 131.707 115.524 133.04C113.658 134.347 111.351 135 108.604 135H98.5244C98.391 135 98.2844 134.96 98.2044 134.88C98.1244 134.773 98.0977 134.653 98.1244 134.52L101.444 107.48C101.471 107.347 101.524 107.24 101.604 107.16C101.711 107.053 101.831 107 101.964 107H111.724C117.271 107 120.044 109.093 120.044 113.28C120.044 113.893 120.018 114.36 119.964 114.68C119.671 117.32 118.338 119.227 115.964 120.4ZM106.564 111.84C106.511 111.84 106.458 111.867 106.404 111.92C106.378 111.947 106.364 111.987 106.364 112.04L105.604 118.28C105.551 118.413 105.604 118.48 105.764 118.48H110.324C111.524 118.48 112.498 118.2 113.244 117.64C113.991 117.053 114.431 116.24 114.564 115.2L114.604 114.72C114.604 113.813 114.298 113.107 113.684 112.6C113.098 112.093 112.244 111.84 111.124 111.84H106.564ZM109.204 130.12C110.511 130.12 111.538 129.76 112.284 129.04C113.058 128.293 113.444 127.28 113.444 126C113.444 125.067 113.138 124.347 112.524 123.84C111.938 123.333 111.098 123.08 110.004 123.08H105.204C105.071 123.08 105.004 123.147 105.004 123.28L104.164 129.92C104.164 130.053 104.218 130.12 104.324 130.12H109.204ZM131.669 135.44C128.895 135.44 126.682 134.667 125.029 133.12C123.402 131.547 122.589 129.453 122.589 126.84C122.589 126.36 122.629 125.84 122.709 125.28L123.749 116.72C123.989 114.747 124.629 113 125.669 111.48C126.709 109.96 128.042 108.787 129.669 107.96C131.322 107.107 133.162 106.68 135.189 106.68C137.989 106.68 140.202 107.453 141.829 109C143.482 110.547 144.309 112.6 144.309 115.16C144.309 115.667 144.269 116.187 144.189 116.72L143.149 125.28C142.909 127.28 142.269 129.053 141.229 130.6C140.189 132.12 138.842 133.307 137.189 134.16C135.535 135.013 133.695 135.44 131.669 135.44ZM132.269 130.6C133.709 130.6 134.909 130.133 135.869 129.2C136.855 128.267 137.455 127.027 137.669 125.48L138.749 116.68C138.775 116.493 138.789 116.213 138.789 115.84C138.789 114.507 138.415 113.453 137.669 112.68C136.922 111.907 135.895 111.52 134.589 111.52C133.175 111.52 131.975 112 130.989 112.96C130.002 113.893 129.415 115.133 129.229 116.68L128.149 125.48C128.122 125.667 128.109 125.947 128.109 126.32C128.109 127.627 128.482 128.667 129.229 129.44C129.975 130.213 130.989 130.6 132.269 130.6ZM165.13 107.48C165.157 107.347 165.21 107.24 165.29 107.16C165.397 107.053 165.517 107 165.65 107H170.21C170.344 107 170.45 107.053 170.53 107.16C170.61 107.24 170.637 107.347 170.61 107.48L167.29 134.52C167.264 134.653 167.197 134.773 167.09 134.88C167.01 134.96 166.904 135 166.77 135H162.37C162.13 135 161.97 134.893 161.89 134.68L153.93 117.56C153.904 117.48 153.864 117.453 153.81 117.48C153.757 117.48 153.717 117.533 153.69 117.64L151.69 134.52C151.664 134.653 151.597 134.773 151.49 134.88C151.41 134.96 151.304 135 151.17 135H146.61C146.477 135 146.37 134.96 146.29 134.88C146.21 134.773 146.184 134.653 146.21 134.52L149.53 107.48C149.557 107.347 149.61 107.24 149.69 107.16C149.797 107.053 149.917 107 150.05 107H154.45C154.69 107 154.864 107.107 154.97 107.32L162.89 124.36C162.917 124.44 162.957 124.48 163.01 124.48C163.064 124.453 163.104 124.387 163.13 124.28L165.13 107.48ZM181.83 135.32C179.083 135.32 176.896 134.573 175.27 133.08C173.67 131.587 172.87 129.587 172.87 127.08C172.87 126.813 172.896 126.36 172.95 125.72L175.19 107.48C175.216 107.347 175.283 107.24 175.39 107.16C175.496 107.053 175.616 107 175.75 107H180.27C180.403 107 180.51 107.053 180.59 107.16C180.67 107.24 180.696 107.347 180.67 107.48L178.43 125.76C178.403 125.947 178.39 126.2 178.39 126.52C178.39 127.72 178.75 128.68 179.47 129.4C180.19 130.12 181.176 130.48 182.43 130.48C183.79 130.48 184.936 130.053 185.87 129.2C186.83 128.32 187.403 127.173 187.59 125.76L189.83 107.48C189.856 107.347 189.91 107.24 189.99 107.16C190.096 107.053 190.216 107 190.35 107H194.91C195.043 107 195.15 107.053 195.23 107.16C195.31 107.24 195.336 107.347 195.31 107.48L193.07 125.72C192.83 127.613 192.203 129.293 191.19 130.76C190.176 132.2 188.856 133.32 187.23 134.12C185.63 134.92 183.83 135.32 181.83 135.32ZM205.763 135.32C202.856 135.32 200.563 134.667 198.883 133.36C197.229 132.053 196.403 130.28 196.403 128.04C196.403 127.8 196.429 127.44 196.483 126.96L196.603 126.08C196.629 125.947 196.683 125.84 196.763 125.76C196.869 125.653 196.989 125.6 197.123 125.6H201.563C201.696 125.6 201.803 125.653 201.883 125.76C201.963 125.84 201.989 125.947 201.963 126.08L201.883 126.68C201.749 127.747 202.109 128.653 202.963 129.4C203.843 130.12 205.096 130.48 206.723 130.48C208.216 130.48 209.336 130.147 210.083 129.48C210.856 128.813 211.243 128 211.243 127.04C211.243 126.453 211.043 125.96 210.643 125.56C210.269 125.16 209.749 124.813 209.083 124.52C208.443 124.2 207.416 123.76 206.003 123.2C204.456 122.613 203.149 122.04 202.083 121.48C201.016 120.893 200.123 120.12 199.403 119.16C198.683 118.2 198.323 117.013 198.323 115.6C198.323 115.413 198.349 115.08 198.403 114.6C198.696 112.173 199.803 110.253 201.723 108.84C203.643 107.4 206.016 106.68 208.843 106.68C210.656 106.68 212.256 107 213.643 107.64C215.056 108.253 216.136 109.133 216.883 110.28C217.656 111.4 218.043 112.72 218.043 114.24C218.043 114.453 218.016 114.8 217.963 115.28L217.883 115.88C217.856 116.013 217.789 116.133 217.683 116.24C217.603 116.32 217.496 116.36 217.363 116.36H212.883C212.749 116.36 212.643 116.32 212.563 116.24C212.483 116.133 212.456 116.013 212.483 115.88L212.523 115.56C212.656 114.44 212.323 113.493 211.523 112.72C210.749 111.92 209.576 111.52 208.003 111.52C206.696 111.52 205.656 111.827 204.883 112.44C204.109 113.027 203.723 113.84 203.723 114.88C203.723 115.467 203.909 115.96 204.283 116.36C204.656 116.76 205.203 117.133 205.923 117.48C206.669 117.827 207.789 118.293 209.283 118.88C210.936 119.547 212.216 120.12 213.123 120.6C214.056 121.053 214.896 121.747 215.643 122.68C216.389 123.613 216.763 124.787 216.763 126.2C216.763 126.387 216.736 126.72 216.683 127.2C216.363 129.707 215.216 131.693 213.243 133.16C211.296 134.6 208.803 135.32 205.763 135.32Z" fill="white"/>
</g>
<g filter="url(#filter3_d_9_53)">
<path d="M9.31 86.24C7.25 86.24 5.61 85.67 4.39 84.53C3.19 83.39 2.59 81.87 2.59 79.97C2.59 79.49 2.61 79.12 2.65 78.86L3.49 72.14C3.67 70.68 4.14 69.39 4.9 68.27C5.66 67.15 6.65 66.29 7.87 65.69C9.09 65.07 10.45 64.76 11.95 64.76C13.31 64.76 14.5 65.02 15.52 65.54C16.54 66.04 17.32 66.74 17.86 67.64C18.42 68.54 18.7 69.56 18.7 70.7C18.7 70.9 18.68 71.18 18.64 71.54L18.61 71.75C18.59 71.85 18.54 71.94 18.46 72.02C18.4 72.08 18.32 72.11 18.22 72.11H14.8C14.7 72.11 14.62 72.08 14.56 72.02C14.5 71.94 14.48 71.85 14.5 71.75L14.53 71.66C14.55 71.56 14.56 71.42 14.56 71.24C14.56 70.4 14.29 69.72 13.75 69.2C13.21 68.66 12.46 68.39 11.5 68.39C10.46 68.39 9.58 68.73 8.86 69.41C8.16 70.07 7.74 70.94 7.6 72.02L6.76 78.98C6.74 79.1 6.73 79.28 6.73 79.52C6.73 80.44 7.02 81.19 7.6 81.77C8.2 82.33 8.97 82.61 9.91 82.61C10.93 82.61 11.77 82.34 12.43 81.8C13.09 81.24 13.48 80.47 13.6 79.49L13.78 78.14C13.78 78.04 13.74 77.99 13.66 77.99H10.39C10.29 77.99 10.21 77.96 10.15 77.9C10.09 77.82 10.07 77.73 10.09 77.63L10.42 74.87C10.44 74.77 10.48 74.69 10.54 74.63C10.62 74.55 10.71 74.51 10.81 74.51H17.92C18.02 74.51 18.1 74.55 18.16 74.63C18.22 74.69 18.24 74.77 18.22 74.87L17.74 78.83C17.46 81.13 16.55 82.94 15.01 84.26C13.49 85.58 11.59 86.24 9.31 86.24ZM36.3325 68.27C36.3125 68.37 36.2625 68.46 36.1825 68.54C36.1225 68.6 36.0425 68.63 35.9425 68.63H26.3725C26.3325 68.63 26.2925 68.65 26.2525 68.69C26.2325 68.71 26.2225 68.74 26.2225 68.78L25.6525 73.43C25.6525 73.53 25.6925 73.58 25.7725 73.58H32.0425C32.1425 73.58 32.2225 73.62 32.2825 73.7C32.3425 73.76 32.3625 73.84 32.3425 73.94L31.9825 76.85C31.9625 76.95 31.9125 77.04 31.8325 77.12C31.7725 77.18 31.6925 77.21 31.5925 77.21H25.3225C25.2225 77.21 25.1725 77.26 25.1725 77.36L24.5725 82.22C24.5725 82.32 24.6125 82.37 24.6925 82.37H34.2325C34.4525 82.37 34.5625 82.49 34.5625 82.73L34.2025 85.64C34.1825 85.74 34.1325 85.83 34.0525 85.91C33.9925 85.97 33.9125 86 33.8125 86H20.3425C20.2425 86 20.1625 85.97 20.1025 85.91C20.0425 85.83 20.0225 85.74 20.0425 85.64L22.5325 65.36C22.5525 65.26 22.5925 65.18 22.6525 65.12C22.7325 65.04 22.8225 65 22.9225 65H36.3625C36.4625 65 36.5425 65.04 36.6025 65.12C36.6825 65.18 36.7125 65.26 36.6925 65.36L36.3325 68.27ZM53.654 65C53.754 65 53.834 65.04 53.894 65.12C53.954 65.18 53.974 65.26 53.954 65.36L53.594 68.3C53.594 68.4 53.554 68.49 53.474 68.57C53.394 68.63 53.304 68.66 53.204 68.66H48.014C47.934 68.66 47.874 68.71 47.834 68.81L45.764 85.64C45.744 85.74 45.694 85.83 45.614 85.91C45.554 85.97 45.474 86 45.374 86H41.984C41.884 86 41.804 85.97 41.744 85.91C41.684 85.83 41.664 85.74 41.684 85.64L43.724 68.81C43.764 68.71 43.724 68.66 43.604 68.66H38.534C38.434 68.66 38.354 68.63 38.294 68.57C38.234 68.49 38.214 68.4 38.234 68.3L38.594 65.36C38.614 65.26 38.654 65.18 38.714 65.12C38.794 65.04 38.884 65 38.984 65H53.654ZM65.3755 85.97C65.2755 85.97 65.1955 85.94 65.1355 85.88C65.0755 85.8 65.0555 85.71 65.0755 85.61L66.0055 78.02C66.0055 78 66.0055 77.98 66.0055 77.96C66.0255 77.92 66.0255 77.88 66.0055 77.84L61.5355 65.42C61.5155 65.38 61.5055 65.33 61.5055 65.27C61.5055 65.09 61.6155 65 61.8355 65H65.5255C65.7055 65 65.8255 65.09 65.8855 65.27L68.5555 73.25C68.5955 73.39 68.6455 73.39 68.7055 73.25L73.3255 65.27C73.4255 65.09 73.5755 65 73.7755 65H77.4955C77.6355 65 77.7255 65.04 77.7655 65.12C77.8055 65.18 77.7855 65.28 77.7055 65.42L70.1455 77.84C70.1055 77.88 70.0855 77.94 70.0855 78.02L69.1555 85.61C69.1355 85.71 69.0855 85.8 69.0055 85.88C68.9455 85.94 68.8655 85.97 68.7655 85.97H65.3755ZM83.9898 86.33C81.9098 86.33 80.2498 85.75 79.0098 84.59C77.7898 83.41 77.1798 81.84 77.1798 79.88C77.1798 79.52 77.2098 79.13 77.2698 78.71L78.0498 72.29C78.2298 70.81 78.7098 69.5 79.4898 68.36C80.2698 67.22 81.2698 66.34 82.4898 65.72C83.7298 65.08 85.1098 64.76 86.6298 64.76C88.7298 64.76 90.3898 65.34 91.6098 66.5C92.8498 67.66 93.4698 69.2 93.4698 71.12C93.4698 71.5 93.4398 71.89 93.3798 72.29L92.5998 78.71C92.4198 80.21 91.9398 81.54 91.1598 82.7C90.3798 83.84 89.3698 84.73 88.1298 85.37C86.8898 86.01 85.5098 86.33 83.9898 86.33ZM84.4398 82.7C85.5198 82.7 86.4198 82.35 87.1398 81.65C87.8798 80.95 88.3298 80.02 88.4898 78.86L89.2998 72.26C89.3198 72.12 89.3298 71.91 89.3298 71.63C89.3298 70.63 89.0498 69.84 88.4898 69.26C87.9298 68.68 87.1598 68.39 86.1798 68.39C85.1198 68.39 84.2198 68.75 83.4798 69.47C82.7398 70.17 82.2998 71.1 82.1598 72.26L81.3498 78.86C81.3298 79 81.3198 79.21 81.3198 79.49C81.3198 80.47 81.5998 81.25 82.1598 81.83C82.7198 82.41 83.4798 82.7 84.4398 82.7ZM102.216 86.24C100.156 86.24 98.516 85.68 97.296 84.56C96.096 83.44 95.496 81.94 95.496 80.06C95.496 79.86 95.516 79.52 95.556 79.04L97.236 65.36C97.256 65.26 97.306 65.18 97.386 65.12C97.466 65.04 97.556 65 97.656 65H101.046C101.146 65 101.226 65.04 101.286 65.12C101.346 65.18 101.366 65.26 101.346 65.36L99.666 79.07C99.646 79.21 99.636 79.4 99.636 79.64C99.636 80.54 99.906 81.26 100.446 81.8C100.986 82.34 101.726 82.61 102.666 82.61C103.686 82.61 104.546 82.29 105.246 81.65C105.966 80.99 106.396 80.13 106.536 79.07L108.216 65.36C108.236 65.26 108.276 65.18 108.336 65.12C108.416 65.04 108.506 65 108.606 65H112.026C112.126 65 112.206 65.04 112.266 65.12C112.326 65.18 112.346 65.26 112.326 65.36L110.646 79.04C110.466 80.46 109.996 81.72 109.236 82.82C108.476 83.9 107.486 84.74 106.266 85.34C105.066 85.94 103.716 86.24 102.216 86.24ZM124.366 86C124.186 86 124.066 85.91 124.006 85.73L121.396 77.42C121.356 77.34 121.296 77.3 121.216 77.3H118.516C118.416 77.3 118.366 77.35 118.366 77.45L117.346 85.64C117.326 85.74 117.276 85.83 117.196 85.91C117.136 85.97 117.056 86 116.956 86H113.536C113.436 86 113.356 85.97 113.296 85.91C113.236 85.83 113.216 85.74 113.236 85.64L115.726 65.36C115.746 65.26 115.786 65.18 115.846 65.12C115.926 65.04 116.016 65 116.116 65H124.456C126.156 65 127.496 65.48 128.476 66.44C129.456 67.4 129.946 68.69 129.946 70.31C129.946 70.51 129.926 70.85 129.886 71.33C129.726 72.69 129.256 73.86 128.476 74.84C127.696 75.8 126.696 76.48 125.476 76.88C125.356 76.92 125.316 76.99 125.356 77.09L128.266 85.58C128.286 85.62 128.296 85.67 128.296 85.73C128.296 85.91 128.186 86 127.966 86H124.366ZM119.566 68.63C119.526 68.63 119.486 68.65 119.446 68.69C119.426 68.71 119.416 68.74 119.416 68.78L118.786 73.91C118.786 74.01 118.826 74.06 118.906 74.06H122.716C123.616 74.06 124.366 73.78 124.966 73.22C125.566 72.64 125.866 71.9 125.866 71C125.866 70.28 125.636 69.71 125.176 69.29C124.736 68.85 124.146 68.63 123.406 68.63H119.566Z" fill="white"/>
</g>
<g filter="url(#filter4_d_9_53)">
<path d="M13.76 35.48C14.6933 35.48 15.4933 35.2133 16.16 34.68C16.8533 34.12 17.3333 33.3867 17.6 32.48C17.7067 32.16 17.9067 32.0267 18.2 32.08L22.56 32.92C22.6933 32.9467 22.7867 33.0133 22.84 33.12C22.92 33.2 22.9333 33.32 22.88 33.48C22.2667 35.5867 21.0933 37.2533 19.36 38.48C17.6267 39.7067 15.56 40.32 13.16 40.32C10.68 40.32 8.72 39.64 7.28 38.28C5.86667 36.92 5.16 35.08 5.16 32.76C5.16 32.4933 5.18667 32.04 5.24 31.4L5.44 29.96C5.44 29.8267 5.37333 29.76 5.24 29.76H2.76C2.62667 29.76 2.52 29.72 2.44 29.64C2.36 29.5333 2.33333 29.4133 2.36 29.28L2.6 27.28C2.62667 27.1467 2.68 27.04 2.76 26.96C2.86667 26.8533 2.98667 26.8 3.12 26.8H5.6C5.76 26.8 5.84 26.7333 5.84 26.6L6 25.36C6 25.2267 5.93333 25.16 5.8 25.16H3.32C3.18667 25.16 3.08 25.12 3 25.04C2.92 24.9333 2.89333 24.8133 2.92 24.68L3.16 22.68C3.18667 22.5467 3.24 22.44 3.32 22.36C3.42667 22.2533 3.54667 22.2 3.68 22.2H6.2C6.25333 22.2 6.29333 22.1867 6.32 22.16C6.37333 22.1067 6.4 22.0533 6.4 22L6.56 20.56C6.90667 17.84 8 15.68 9.84 14.08C11.68 12.48 13.96 11.68 16.68 11.68C19.1333 11.68 21.08 12.3067 22.52 13.56C23.96 14.8133 24.7067 16.52 24.76 18.68C24.76 18.9733 24.6 19.1467 24.28 19.2L19.68 19.8H19.6C19.3333 19.8 19.2 19.6533 19.2 19.36C19.1467 18.48 18.84 17.7867 18.28 17.28C17.72 16.7733 16.9867 16.52 16.08 16.52C15.0133 16.52 14.1067 16.88 13.36 17.6C12.64 18.2933 12.2133 19.2267 12.08 20.4L11.88 22C11.8267 22.1333 11.88 22.2 12.04 22.2H19.76C19.92 22.2 20.0267 22.2533 20.08 22.36C20.1333 22.4667 20.1333 22.6 20.08 22.76L19.24 24.76C19.16 25.0267 18.9867 25.16 18.72 25.16H11.68C11.5733 25.16 11.4933 25.2267 11.44 25.36L11.32 26.6C11.2667 26.7333 11.32 26.8 11.48 26.8H17.88C18.04 26.8 18.1467 26.8533 18.2 26.96C18.2533 27.0667 18.2533 27.2 18.2 27.36L17.36 29.36C17.28 29.6267 17.0933 29.76 16.8 29.76H11.12C11.0133 29.76 10.9333 29.8267 10.88 29.96L10.68 31.64C10.6533 31.7733 10.64 31.9867 10.64 32.28C10.64 33.24 10.92 34.0133 11.48 34.6C12.04 35.1867 12.8 35.48 13.76 35.48ZM33.4894 34.92C33.436 34.9733 33.4094 35.0267 33.4094 35.08C33.436 35.1333 33.4894 35.16 33.5694 35.16H44.0894C44.2227 35.16 44.3294 35.2133 44.4094 35.32C44.4894 35.4 44.516 35.5067 44.4894 35.64L44.0494 39.52C44.0227 39.6533 43.956 39.7733 43.8494 39.88C43.7427 39.96 43.6227 40 43.4894 40H26.0494C25.916 40 25.8094 39.96 25.7294 39.88C25.6494 39.7733 25.6227 39.6533 25.6494 39.52L26.0894 35.84C26.1427 35.5733 26.2494 35.3733 26.4094 35.24C28.3294 33.48 30.6894 31.1867 33.4894 28.36C35.2494 26.6 36.1294 25.72 36.1294 25.72C38.796 23.0533 40.2227 21.0533 40.4094 19.72L40.4494 19.28C40.4494 18.4533 40.156 17.7867 39.5694 17.28C39.0094 16.7733 38.2494 16.52 37.2894 16.52C36.2494 16.52 35.3694 16.8267 34.6494 17.44C33.956 18.0267 33.5427 18.8133 33.4094 19.8L33.2894 20.8C33.2627 20.9333 33.196 21.0533 33.0894 21.16C33.0094 21.24 32.9027 21.28 32.7694 21.28H28.1694C28.036 21.28 27.9294 21.24 27.8494 21.16C27.7694 21.0533 27.7427 20.9333 27.7694 20.8L28.0094 18.92C28.4094 16.7333 29.5294 14.9867 31.3694 13.68C33.2094 12.3467 35.3827 11.68 37.8894 11.68C39.5694 11.68 41.0227 11.9867 42.2494 12.6C43.476 13.1867 44.4094 14.0133 45.0494 15.08C45.6894 16.12 46.0094 17.3067 46.0094 18.64C46.0094 19.92 45.6627 21.2267 44.9694 22.56C44.276 23.8933 43.2227 25.32 41.8094 26.84C40.9294 27.8267 39.8227 28.96 38.4894 30.24C37.156 31.52 35.8094 32.7867 34.4494 34.04L33.4894 34.92ZM47.0881 43.92C46.7681 43.92 46.6481 43.7467 46.7281 43.4L49.1281 34.12C49.2081 33.8267 49.3948 33.68 49.6881 33.68H53.6481C53.9681 33.68 54.0748 33.8533 53.9681 34.2L50.4481 43.52C50.3415 43.7867 50.1415 43.92 49.8481 43.92H47.0881ZM76.4416 27.24C76.5749 27.9067 76.6416 28.68 76.6416 29.56C76.6416 30.2267 76.6149 30.72 76.5616 31.04C76.4016 32.3733 76.0416 33.6 75.4816 34.72C74.7082 36.4 73.4949 37.7467 71.8416 38.76C70.2149 39.7733 68.4016 40.28 66.4016 40.28C64.4282 40.28 62.7616 39.8 61.4016 38.84C60.0416 37.8533 59.1482 36.52 58.7216 34.84C58.5616 34.2533 58.4549 33.52 58.4016 32.64C58.4016 32.2933 58.5749 32.12 58.9216 32.12H63.6416C63.8816 32.12 64.0282 32.2667 64.0816 32.56C64.1349 32.8267 64.1882 33.0533 64.2416 33.24C64.4016 33.9333 64.7216 34.4667 65.2016 34.84C65.6816 35.2133 66.2682 35.4 66.9616 35.4C67.6816 35.4 68.3349 35.2 68.9216 34.8C69.5082 34.4 69.9749 33.84 70.3216 33.12C70.6416 32.6133 70.8549 31.92 70.9616 31.04C70.9882 30.8533 71.0016 30.5733 71.0016 30.2C71.0016 29.8 70.9616 29.3867 70.8816 28.96C70.7749 28.2667 70.4816 27.7333 70.0016 27.36C69.5216 26.9867 68.9082 26.8 68.1616 26.8C67.4149 26.8 66.7082 26.9733 66.0416 27.32C65.3749 27.6667 64.9216 28.12 64.6816 28.68C64.5482 28.9467 64.3616 29.08 64.1216 29.08H59.3216C59.1882 29.08 59.0816 29.04 59.0016 28.96C58.9216 28.8533 58.8949 28.7333 58.9216 28.6L60.9216 12.48C60.9482 12.3467 61.0016 12.24 61.0816 12.16C61.1882 12.0533 61.3082 12 61.4416 12H77.4416C77.5749 12 77.6816 12.0533 77.7616 12.16C77.8682 12.24 77.9082 12.3467 77.8816 12.48L77.4016 16.36C77.3749 16.4933 77.3082 16.6133 77.2016 16.72C77.1216 16.8 77.0149 16.84 76.8816 16.84H66.0416C65.9082 16.84 65.8416 16.9067 65.8416 17.04L65.0416 22.96C65.0416 23.1467 65.1216 23.1867 65.2816 23.08C66.5082 22.3067 67.8949 21.92 69.4416 21.92C71.2282 21.92 72.7482 22.4 74.0016 23.36C75.2549 24.2933 76.0682 25.5867 76.4416 27.24ZM87.7 40.44C85.1133 40.44 83.1 39.76 81.66 38.4C80.22 37.04 79.5 35.16 79.5 32.76C79.5 32.12 79.5267 31.6267 79.58 31.28L80.86 20.72C81.2067 17.9467 82.3 15.7467 84.14 14.12C86.0067 12.4933 88.3667 11.68 91.22 11.68C93.8067 11.68 95.82 12.36 97.26 13.72C98.7267 15.0533 99.46 16.8933 99.46 19.24C99.46 19.88 99.4333 20.3733 99.38 20.72L98.1 31.28C97.7533 34.1067 96.6467 36.3467 94.78 38C92.9133 39.6267 90.5533 40.44 87.7 40.44ZM88.3 35.6C89.4467 35.6 90.4067 35.24 91.18 34.52C91.9533 33.8 92.42 32.8133 92.58 31.56L93.94 20.56C93.9667 20.4 93.98 20.1867 93.98 19.92C93.98 18.8533 93.6867 18.0267 93.1 17.44C92.5133 16.8267 91.6867 16.52 90.62 16.52C89.4733 16.52 88.5133 16.8933 87.74 17.64C86.9667 18.36 86.5133 19.3333 86.38 20.56L85.02 31.56C84.9933 31.72 84.98 31.96 84.98 32.28C84.98 33.32 85.2733 34.1333 85.86 34.72C86.4467 35.3067 87.26 35.6 88.3 35.6ZM109.809 40.44C107.223 40.44 105.209 39.76 103.769 38.4C102.329 37.04 101.609 35.16 101.609 32.76C101.609 32.12 101.636 31.6267 101.689 31.28L102.969 20.72C103.316 17.9467 104.409 15.7467 106.249 14.12C108.116 12.4933 110.476 11.68 113.329 11.68C115.916 11.68 117.929 12.36 119.369 13.72C120.836 15.0533 121.569 16.8933 121.569 19.24C121.569 19.88 121.543 20.3733 121.489 20.72L120.209 31.28C119.863 34.1067 118.756 36.3467 116.889 38C115.023 39.6267 112.663 40.44 109.809 40.44ZM110.409 35.6C111.556 35.6 112.516 35.24 113.289 34.52C114.063 33.8 114.529 32.8133 114.689 31.56L116.049 20.56C116.076 20.4 116.089 20.1867 116.089 19.92C116.089 18.8533 115.796 18.0267 115.209 17.44C114.623 16.8267 113.796 16.52 112.729 16.52C111.583 16.52 110.623 16.8933 109.849 17.64C109.076 18.36 108.623 19.3333 108.489 20.56L107.129 31.56C107.103 31.72 107.089 31.96 107.089 32.28C107.089 33.32 107.383 34.1333 107.969 34.72C108.556 35.3067 109.369 35.6 110.409 35.6Z" fill="#FFD700"/>
<path d="M137.092 40C136.799 40 136.639 39.8667 136.612 39.6L133.052 12.52V12.44C133.052 12.1467 133.199 12 133.492 12H138.332C138.599 12 138.746 12.1333 138.772 12.4L140.452 28.68C140.479 28.7867 140.519 28.84 140.572 28.84C140.626 28.84 140.666 28.7867 140.692 28.68L146.252 12.44C146.386 12.1467 146.572 12 146.812 12H151.532C151.826 12 151.986 12.1333 152.012 12.4L153.892 28.68C153.892 28.76 153.919 28.8133 153.972 28.84C154.052 28.84 154.106 28.7867 154.132 28.68L159.692 12.44C159.826 12.1467 160.012 12 160.252 12H164.812C165.159 12 165.279 12.1733 165.172 12.52L155.492 39.6C155.386 39.8667 155.186 40 154.892 40H150.292C150.026 40 149.879 39.8667 149.852 39.6L148.012 22.28C147.986 22.1733 147.946 22.12 147.892 22.12C147.866 22.12 147.826 22.1733 147.772 22.28L141.972 39.56C141.892 39.8533 141.706 40 141.412 40H137.092ZM186.641 16.36C186.615 16.4933 186.548 16.6133 186.441 16.72C186.361 16.8 186.255 16.84 186.121 16.84H173.361C173.308 16.84 173.255 16.8667 173.201 16.92C173.175 16.9467 173.161 16.9867 173.161 17.04L172.401 23.24C172.401 23.3733 172.455 23.44 172.561 23.44H180.921C181.055 23.44 181.161 23.4933 181.241 23.6C181.321 23.68 181.348 23.7867 181.321 23.92L180.841 27.8C180.815 27.9333 180.748 28.0533 180.641 28.16C180.561 28.24 180.455 28.28 180.321 28.28H171.961C171.828 28.28 171.761 28.3467 171.761 28.48L170.961 34.96C170.961 35.0933 171.015 35.16 171.121 35.16H183.841C184.135 35.16 184.281 35.32 184.281 35.64L183.801 39.52C183.775 39.6533 183.708 39.7733 183.601 39.88C183.521 39.96 183.415 40 183.281 40H165.321C165.188 40 165.081 39.96 165.001 39.88C164.921 39.7733 164.895 39.6533 164.921 39.52L168.241 12.48C168.268 12.3467 168.321 12.24 168.401 12.16C168.508 12.0533 168.628 12 168.761 12H186.681C186.815 12 186.921 12.0533 187.001 12.16C187.108 12.24 187.148 12.3467 187.121 12.48L186.641 16.36ZM188.017 40C187.883 40 187.777 39.96 187.697 39.88C187.617 39.7733 187.59 39.6533 187.617 39.52L190.937 12.48C190.963 12.3467 191.017 12.24 191.097 12.16C191.203 12.0533 191.323 12 191.457 12H196.017C196.15 12 196.257 12.0533 196.337 12.16C196.417 12.24 196.443 12.3467 196.417 12.48L193.657 34.96C193.657 35.0933 193.71 35.16 193.817 35.16H206.497C206.79 35.16 206.937 35.32 206.937 35.64L206.457 39.52C206.43 39.6533 206.363 39.7733 206.257 39.88C206.177 39.96 206.07 40 205.937 40H188.017ZM218.932 40.32C216.158 40.32 213.972 39.5733 212.372 38.08C210.772 36.5867 209.972 34.5867 209.972 32.08C209.972 31.44 209.998 30.9467 210.052 30.6L211.172 21.36C211.412 19.44 212.038 17.7467 213.052 16.28C214.065 14.8133 215.385 13.68 217.012 12.88C218.638 12.08 220.452 11.68 222.452 11.68C225.225 11.68 227.412 12.4 229.012 13.84C230.638 15.28 231.452 17.2 231.452 19.6C231.452 19.8933 231.425 20.3333 231.372 20.92C231.318 21.1867 231.145 21.3333 230.852 21.36L226.292 21.64H226.212C225.945 21.64 225.838 21.4933 225.892 21.2C225.918 21.04 225.932 20.8133 225.932 20.52C225.932 19.2933 225.558 18.32 224.812 17.6C224.092 16.88 223.105 16.52 221.852 16.52C220.465 16.52 219.292 16.96 218.332 17.84C217.398 18.6933 216.852 19.8133 216.692 21.2L215.492 30.84C215.465 31 215.452 31.2267 215.452 31.52C215.452 32.72 215.812 33.68 216.532 34.4C217.252 35.12 218.252 35.48 219.532 35.48C220.918 35.48 222.078 35.0533 223.012 34.2C223.945 33.3467 224.505 32.2267 224.692 30.84C224.745 30.5467 224.918 30.4 225.212 30.4L229.732 30.6C229.865 30.6 229.972 30.64 230.052 30.72C230.132 30.7733 230.158 30.8667 230.132 31C229.918 32.84 229.305 34.4667 228.292 35.88C227.278 37.2933 225.958 38.3867 224.332 39.16C222.732 39.9333 220.932 40.32 218.932 40.32ZM242.645 40.44C239.872 40.44 237.659 39.6667 236.005 38.12C234.379 36.5467 233.565 34.4533 233.565 31.84C233.565 31.36 233.605 30.84 233.685 30.28L234.725 21.72C234.965 19.7467 235.605 18 236.645 16.48C237.685 14.96 239.019 13.7867 240.645 12.96C242.299 12.1067 244.139 11.68 246.165 11.68C248.965 11.68 251.179 12.4533 252.805 14C254.459 15.5467 255.285 17.6 255.285 20.16C255.285 20.6667 255.245 21.1867 255.165 21.72L254.125 30.28C253.885 32.28 253.245 34.0533 252.205 35.6C251.165 37.12 249.819 38.3067 248.165 39.16C246.512 40.0133 244.672 40.44 242.645 40.44ZM243.245 35.6C244.685 35.6 245.885 35.1333 246.845 34.2C247.832 33.2667 248.432 32.0267 248.645 30.48L249.725 21.68C249.752 21.4933 249.765 21.2133 249.765 20.84C249.765 19.5067 249.392 18.4533 248.645 17.68C247.899 16.9067 246.872 16.52 245.565 16.52C244.152 16.52 242.952 17 241.965 17.96C240.979 18.8933 240.392 20.1333 240.205 21.68L239.125 30.48C239.099 30.6667 239.085 30.9467 239.085 31.32C239.085 32.6267 239.459 33.6667 240.205 34.44C240.952 35.2133 241.965 35.6 243.245 35.6ZM277.987 12.32C278.147 12.1067 278.347 12 278.587 12H283.107C283.24 12 283.347 12.0533 283.427 12.16C283.507 12.24 283.534 12.3467 283.507 12.48L280.187 39.52C280.187 39.6533 280.134 39.7733 280.027 39.88C279.92 39.96 279.8 40 279.667 40H275.147C275.014 40 274.907 39.96 274.827 39.88C274.747 39.7733 274.72 39.6533 274.747 39.52L276.907 21.88C276.907 21.7733 276.88 21.72 276.827 21.72C276.774 21.72 276.72 21.76 276.667 21.84L271.747 28.48C271.587 28.6933 271.387 28.8 271.147 28.8H268.867C268.627 28.8 268.467 28.6933 268.387 28.48L265.067 21.84C265.04 21.76 265 21.7333 264.947 21.76C264.894 21.76 264.854 21.8133 264.827 21.92L262.667 39.52C262.64 39.6533 262.574 39.7733 262.467 39.88C262.387 39.96 262.28 40 262.147 40H257.587C257.454 40 257.347 39.96 257.267 39.88C257.187 39.7733 257.16 39.6533 257.187 39.52L260.507 12.48C260.534 12.3467 260.587 12.24 260.667 12.16C260.774 12.0533 260.894 12 261.027 12H265.587C265.827 12 265.987 12.1067 266.067 12.32L270.747 21.64C270.827 21.8 270.907 21.8 270.987 21.64L277.987 12.32ZM306.641 16.36C306.615 16.4933 306.548 16.6133 306.441 16.72C306.361 16.8 306.255 16.84 306.121 16.84H293.361C293.308 16.84 293.255 16.8667 293.201 16.92C293.175 16.9467 293.161 16.9867 293.161 17.04L292.401 23.24C292.401 23.3733 292.455 23.44 292.561 23.44H300.921C301.055 23.44 301.161 23.4933 301.241 23.6C301.321 23.68 301.348 23.7867 301.321 23.92L300.841 27.8C300.815 27.9333 300.748 28.0533 300.641 28.16C300.561 28.24 300.455 28.28 300.321 28.28H291.961C291.828 28.28 291.761 28.3467 291.761 28.48L290.961 34.96C290.961 35.0933 291.015 35.16 291.121 35.16H303.841C304.135 35.16 304.281 35.32 304.281 35.64L303.801 39.52C303.775 39.6533 303.708 39.7733 303.601 39.88C303.521 39.96 303.415 40 303.281 40H285.321C285.188 40 285.081 39.96 285.001 39.88C284.921 39.7733 284.895 39.6533 284.921 39.52L288.241 12.48C288.268 12.3467 288.321 12.24 288.401 12.16C288.508 12.0533 288.628 12 288.761 12H306.681C306.815 12 306.921 12.0533 307.001 12.16C307.108 12.24 307.148 12.3467 307.121 12.48L306.641 16.36ZM329.99 11.96C332.31 11.96 334.15 12.6267 335.51 13.96C336.897 15.2667 337.59 17.04 337.59 19.28C337.59 19.5467 337.563 20 337.51 20.64C337.297 22.32 336.737 23.8 335.83 25.08C334.95 26.36 333.803 27.36 332.39 28.08C330.977 28.7733 329.403 29.12 327.67 29.12H322.15C322.043 29.12 321.963 29.1867 321.91 29.32L320.67 39.52C320.643 39.6533 320.577 39.7733 320.47 39.88C320.39 39.96 320.283 40 320.15 40H315.63C315.337 40 315.19 39.84 315.19 39.52L318.55 12.44C318.55 12.3067 318.603 12.2 318.71 12.12C318.817 12.0133 318.937 11.96 319.07 11.96H329.99ZM327.63 24.6C328.91 24.6 329.977 24.1867 330.83 23.36C331.683 22.5067 332.11 21.44 332.11 20.16C332.11 19.1467 331.79 18.3467 331.15 17.76C330.51 17.1467 329.657 16.84 328.59 16.84H323.67C323.563 16.84 323.483 16.9067 323.43 17.04L322.55 24.4C322.497 24.5333 322.55 24.6 322.71 24.6H327.63ZM353.528 40C353.288 40 353.141 39.8667 353.088 39.6L352.408 35.68C352.408 35.6533 352.394 35.6267 352.368 35.6C352.341 35.5467 352.301 35.52 352.248 35.52H342.688C342.608 35.52 342.541 35.5733 342.488 35.68L340.848 39.6C340.768 39.8667 340.594 40 340.328 40H335.368C335.208 40 335.088 39.9467 335.008 39.84C334.954 39.7333 334.968 39.6 335.048 39.44L346.768 12.4C346.901 12.1333 347.088 12 347.328 12H353.408C353.648 12 353.808 12.1333 353.888 12.4L358.928 39.44V39.56C358.928 39.6933 358.888 39.8 358.808 39.88C358.728 39.96 358.621 40 358.488 40H353.528ZM344.448 30.92C344.421 31.08 344.461 31.16 344.568 31.16H351.408C351.541 31.16 351.608 31.08 351.608 30.92L349.568 19.04C349.541 18.9333 349.501 18.8933 349.448 18.92C349.394 18.92 349.354 18.96 349.328 19.04L344.448 30.92ZM370.963 40.32C368.189 40.32 366.003 39.5733 364.403 38.08C362.803 36.5867 362.003 34.5867 362.003 32.08C362.003 31.44 362.029 30.9467 362.083 30.6L363.203 21.36C363.443 19.44 364.069 17.7467 365.083 16.28C366.096 14.8133 367.416 13.68 369.043 12.88C370.669 12.08 372.483 11.68 374.483 11.68C377.256 11.68 379.443 12.4 381.043 13.84C382.669 15.28 383.483 17.2 383.483 19.6C383.483 19.8933 383.456 20.3333 383.403 20.92C383.349 21.1867 383.176 21.3333 382.883 21.36L378.323 21.64H378.243C377.976 21.64 377.869 21.4933 377.923 21.2C377.949 21.04 377.963 20.8133 377.963 20.52C377.963 19.2933 377.589 18.32 376.843 17.6C376.123 16.88 375.136 16.52 373.883 16.52C372.496 16.52 371.323 16.96 370.363 17.84C369.429 18.6933 368.883 19.8133 368.723 21.2L367.523 30.84C367.496 31 367.483 31.2267 367.483 31.52C367.483 32.72 367.843 33.68 368.563 34.4C369.283 35.12 370.283 35.48 371.563 35.48C372.949 35.48 374.109 35.0533 375.043 34.2C375.976 33.3467 376.536 32.2267 376.723 30.84C376.776 30.5467 376.949 30.4 377.243 30.4L381.763 30.6C381.896 30.6 382.003 30.64 382.083 30.72C382.163 30.7733 382.189 30.8667 382.163 31C381.949 32.84 381.336 34.4667 380.323 35.88C379.309 37.2933 377.989 38.3867 376.363 39.16C374.763 39.9333 372.963 40.32 370.963 40.32ZM385.517 40C385.383 40 385.277 39.96 385.197 39.88C385.117 39.7733 385.09 39.6533 385.117 39.52L388.437 12.48C388.463 12.3467 388.517 12.24 388.597 12.16C388.703 12.0533 388.823 12 388.957 12H393.517C393.65 12 393.757 12.0533 393.837 12.16C393.917 12.24 393.943 12.3467 393.917 12.48L392.557 23.68C392.53 23.76 392.543 23.8133 392.597 23.84C392.65 23.84 392.703 23.8133 392.757 23.76L403.157 12.28C403.317 12.0933 403.517 12 403.757 12H408.877C409.143 12 409.277 12.0933 409.277 12.28C409.277 12.3867 409.223 12.4933 409.117 12.6L399.077 24C398.97 24.1067 398.943 24.2 398.997 24.28L406.277 39.44C406.303 39.4933 406.317 39.5733 406.317 39.68C406.317 39.8933 406.183 40 405.917 40H400.797C400.53 40 400.357 39.8933 400.277 39.68L394.797 28.16C394.77 28.1067 394.73 28.08 394.677 28.08C394.623 28.08 394.57 28.1067 394.517 28.16L391.677 31.32L391.557 31.56L390.597 39.52C390.57 39.6533 390.503 39.7733 390.397 39.88C390.317 39.96 390.21 40 390.077 40H385.517ZM427.043 40C426.803 40 426.656 39.8667 426.603 39.6L425.923 35.68C425.923 35.6533 425.91 35.6267 425.883 35.6C425.856 35.5467 425.816 35.52 425.763 35.52H416.203C416.123 35.52 416.056 35.5733 416.003 35.68L414.363 39.6C414.283 39.8667 414.11 40 413.843 40H408.883C408.723 40 408.603 39.9467 408.523 39.84C408.47 39.7333 408.483 39.6 408.563 39.44L420.283 12.4C420.416 12.1333 420.603 12 420.843 12H426.923C427.163 12 427.323 12.1333 427.403 12.4L432.443 39.44V39.56C432.443 39.6933 432.403 39.8 432.323 39.88C432.243 39.96 432.136 40 432.003 40H427.043ZM417.963 30.92C417.936 31.08 417.976 31.16 418.083 31.16H424.923C425.056 31.16 425.123 31.08 425.123 30.92L423.083 19.04C423.056 18.9333 423.016 18.8933 422.963 18.92C422.91 18.92 422.87 18.96 422.843 19.04L417.963 30.92ZM444.478 40.32C441.732 40.32 439.545 39.56 437.918 38.04C436.318 36.52 435.518 34.4933 435.518 31.96C435.518 31.32 435.545 30.8267 435.598 30.48L436.718 21.52C436.958 19.5733 437.585 17.8533 438.598 16.36C439.612 14.8667 440.932 13.72 442.558 12.92C444.185 12.0933 445.998 11.68 447.998 11.68C449.812 11.68 451.398 12.0267 452.758 12.72C454.118 13.3867 455.158 14.32 455.878 15.52C456.625 16.72 456.998 18.08 456.998 19.6C456.998 19.8667 456.972 20.24 456.918 20.72L456.878 21C456.852 21.1333 456.785 21.2533 456.678 21.36C456.598 21.44 456.492 21.48 456.358 21.48H451.798C451.665 21.48 451.558 21.44 451.478 21.36C451.398 21.2533 451.372 21.1333 451.398 21L451.438 20.88C451.465 20.7467 451.478 20.56 451.478 20.32C451.478 19.2 451.118 18.2933 450.398 17.6C449.678 16.88 448.678 16.52 447.398 16.52C446.012 16.52 444.838 16.9733 443.878 17.88C442.945 18.76 442.385 19.92 442.198 21.36L441.078 30.64C441.052 30.8 441.038 31.04 441.038 31.36C441.038 32.5867 441.425 33.5867 442.198 34.36C442.998 35.1067 444.025 35.48 445.278 35.48C446.638 35.48 447.758 35.12 448.638 34.4C449.518 33.6533 450.038 32.6267 450.198 31.32L450.438 29.52C450.438 29.3867 450.385 29.32 450.278 29.32H445.918C445.785 29.32 445.678 29.28 445.598 29.2C445.518 29.0933 445.492 28.9733 445.518 28.84L445.958 25.16C445.985 25.0267 446.038 24.92 446.118 24.84C446.225 24.7333 446.345 24.68 446.478 24.68H455.958C456.092 24.68 456.198 24.7333 456.278 24.84C456.358 24.92 456.385 25.0267 456.358 25.16L455.718 30.44C455.345 33.5067 454.132 35.92 452.078 37.68C450.052 39.44 447.518 40.32 444.478 40.32ZM480.508 16.36C480.482 16.4933 480.415 16.6133 480.308 16.72C480.228 16.8 480.122 16.84 479.988 16.84H467.228C467.175 16.84 467.122 16.8667 467.068 16.92C467.042 16.9467 467.028 16.9867 467.028 17.04L466.268 23.24C466.268 23.3733 466.322 23.44 466.428 23.44H474.788C474.922 23.44 475.028 23.4933 475.108 23.6C475.188 23.68 475.215 23.7867 475.188 23.92L474.708 27.8C474.682 27.9333 474.615 28.0533 474.508 28.16C474.428 28.24 474.322 28.28 474.188 28.28H465.828C465.695 28.28 465.628 28.3467 465.628 28.48L464.828 34.96C464.828 35.0933 464.882 35.16 464.988 35.16H477.708C478.002 35.16 478.148 35.32 478.148 35.64L477.668 39.52C477.642 39.6533 477.575 39.7733 477.468 39.88C477.388 39.96 477.282 40 477.148 40H459.188C459.055 40 458.948 39.96 458.868 39.88C458.788 39.7733 458.762 39.6533 458.788 39.52L462.108 12.48C462.135 12.3467 462.188 12.24 462.268 12.16C462.375 12.0533 462.495 12 462.628 12H480.548C480.682 12 480.788 12.0533 480.868 12.16C480.975 12.24 481.015 12.3467 480.988 12.48L480.508 16.36Z" fill="white"/>
</g>
<defs>
<filter id="filter0_d_9_53" x="3.35999" y="198.68" width="276.48" height="38.76" filterUnits="userSpaceOnUse" color-interpolation-filters="sRGB">
<feFlood flood-opacity="0" result="BackgroundImageFix"/>
<feColorMatrix in="SourceAlpha" type="matrix" values="0 0 0 0 0 0 0 0 0 0 0 0 0 0 0 0 0 0 127 0" result="hardAlpha"/>
<feOffset dx="5" dy="5"/>
<feGaussianBlur stdDeviation="2.5"/>
<feComposite in2="hardAlpha" operator="out"/>
<feColorMatrix type="matrix" values="0 0 0 0 0 0 0 0 0 0 0 0 0 0 0 0 0 0 0.25 0"/>
<feBlend mode="normal" in2="BackgroundImageFix" result="effect1_dropShadow_9_53"/>
<feBlend mode="normal" in="SourceGraphic" in2="effect1_dropShadow_9_53" result="shape"/>
</filter>
<filter id="filter1_d_9_53" x="2.07999" y="156.76" width="78.6435" height="31.48" filterUnits="userSpaceOnUse" color-interpolation-filters="sRGB">
<feFlood flood-opacity="0" result="BackgroundImageFix"/>
<feColorMatrix in="SourceAlpha" type="matrix" values="0 0 0 0 0 0 0 0 0 0 0 0 0 0 0 0 0 0 127 0" result="hardAlpha"/>
<feOffset dx="5" dy="5"/>
<feGaussianBlur stdDeviation="2.5"/>
<feComposite in2="hardAlpha" operator="out"/>
<feColorMatrix type="matrix" values="0 0 0 0 0 0 0 0 0 0 0 0 0 0 0 0 0 0 0.25 0"/>
<feBlend mode="normal" in2="BackgroundImageFix" result="effect1_dropShadow_9_53"/>
<feBlend mode="normal" in="SourceGraphic" in2="effect1_dropShadow_9_53" result="shape"/>
</filter>
<filter id="filter2_d_9_53" x="3.35999" y="106.64" width="224.683" height="38.8" filterUnits="userSpaceOnUse" color-interpolation-filters="sRGB">
<feFlood flood-opacity="0" result="BackgroundImageFix"/>
<feColorMatrix in="SourceAlpha" type="matrix" values="0 0 0 0 0 0 0 0 0 0 0 0 0 0 0 0 0 0 127 0" result="hardAlpha"/>
<feOffset dx="5" dy="5"/>
<feGaussianBlur stdDeviation="2.5"/>
<feComposite in2="hardAlpha" operator="out"/>
<feColorMatrix type="matrix" values="0 0 0 0 0 0 0 0 0 0 0 0 0 0 0 0 0 0 0.25 0"/>
<feBlend mode="normal" in2="BackgroundImageFix" result="effect1_dropShadow_9_53"/>
<feBlend mode="normal" in="SourceGraphic" in2="effect1_dropShadow_9_53" result="shape"/>
</filter>
<filter id="filter3_d_9_53" x="2.59" y="64.76" width="137.356" height="31.57" filterUnits="userSpaceOnUse" color-interpolation-filters="sRGB">
<feFlood flood-opacity="0" result="BackgroundImageFix"/>
<feColorMatrix in="SourceAlpha" type="matrix" values="0 0 0 0 0 0 0 0 0 0 0 0 0 0 0 0 0 0 127 0" result="hardAlpha"/>
<feOffset dx="5" dy="5"/>
<feGaussianBlur stdDeviation="2.5"/>
<feComposite in2="hardAlpha" operator="out"/>
<feColorMatrix type="matrix" values="0 0 0 0 0 0 0 0 0 0 0 0 0 0 0 0 0 0 0.25 0"/>
<feBlend mode="normal" in2="BackgroundImageFix" result="effect1_dropShadow_9_53"/>
<feBlend mode="normal" in="SourceGraphic" in2="effect1_dropShadow_9_53" result="shape"/>
</filter>
<filter id="filter4_d_9_53" x="2.32001" y="11.68" width="488.708" height="42.24" filterUnits="userSpaceOnUse" color-interpolation-filters="sRGB">
<feFlood flood-opacity="0" result="BackgroundImageFix"/>
<feColorMatrix in="SourceAlpha" type="matrix" values="0 0 0 0 0 0 0 0 0 0 0 0 0 0 0 0 0 0 127 0" result="hardAlpha"/>
<feOffset dx="5" dy="5"/>
<feGaussianBlur stdDeviation="2.5"/>
<feComposite in2="hardAlpha" operator="out"/>
<feColorMatrix type="matrix" values="0 0 0 0 0 0 0 0 0 0 0 0 0 0 0 0 0 0 0.25 0"/>
<feBlend mode="normal" in2="BackgroundImageFix" result="effect1_dropShadow_9_53"/>
<feBlend mode="normal" in="SourceGraphic" in2="effect1_dropShadow_9_53" result="shape"/>
</filter>
</defs>
</svg>
